<?xml version="1.0" encoding="UTF-8"?>
<!DOCTYPE svg PUBLIC "-//W3C//DTD SVG 1.1//EN" "http://www.w3.org/Graphics/SVG/1.1/DTD/svg11.dtd">
<svg xmlns="http://www.w3.org/2000/svg" version="1.1" width="698px" height="149px" style="shape-rendering:geometricPrecision; text-rendering:geometricPrecision; image-rendering:optimizeQuality; fill-rule:evenodd; clip-rule:evenodd" xmlns:xlink="http://www.w3.org/1999/xlink">
<g><path style="opacity:1" fill="#fefefd" d="M -0.5,-0.5 C 232.167,-0.5 464.833,-0.5 697.5,-0.5C 697.5,49.1667 697.5,98.8333 697.5,148.5C 464.833,148.5 232.167,148.5 -0.5,148.5C -0.5,98.8333 -0.5,49.1667 -0.5,-0.5 Z"/></g>
<g><path style="opacity:1" fill="#fae9b7" d="M 153.5,32.5 C 148.305,32.1795 143.305,32.5128 138.5,33.5C 137.833,53.1667 137.167,72.8333 136.5,92.5C 136.333,72.4972 136.5,52.4972 137,32.5C 142.599,31.1752 148.099,31.1752 153.5,32.5 Z"/></g>
<g><path style="opacity:1" fill="#f7bb5d" d="M 307.5,32.5 C 307.5,32.8333 307.5,33.1667 307.5,33.5C 307.167,33.5 306.833,33.5 306.5,33.5C 301.821,33.3342 297.155,33.5008 292.5,34C 291.627,35.045 290.627,35.8783 289.5,36.5C 289.511,34.9826 290.177,33.8159 291.5,33C 296.823,32.5006 302.156,32.334 307.5,32.5 Z"/></g>
<g><path style="opacity:1" fill="#bcbbbf" d="M 494.5,34.5 C 475.007,33.5029 455.34,33.1696 435.5,33.5C 435.5,62.1667 435.5,90.8333 435.5,119.5C 434.502,90.6715 434.169,61.6715 434.5,32.5C 454.844,32.167 475.178,32.5004 495.5,33.5C 495.376,34.1067 495.043,34.44 494.5,34.5 Z"/></g>
<g><path style="opacity:1" fill="#99999e" d="M 548.5,30.5 C 560.297,30.1532 571.297,32.9866 581.5,39C 584.406,41.0859 586.739,43.5859 588.5,46.5C 588.124,48.3829 587.124,49.8829 585.5,51C 582.989,52.8478 580.489,54.6811 578,56.5C 562.333,41.6253 546.999,41.9586 532,57.5C 521.791,76.2316 525.291,91.7316 542.5,104C 550.018,106.941 557.685,107.274 565.5,105C 569.77,102.284 573.937,99.4511 578,96.5C 581.863,98.4406 585.196,101.107 588,104.5C 587.912,107.642 586.412,110.142 583.5,112C 568.553,122.097 552.553,124.097 535.5,118C 515.61,105.711 507.444,87.8775 511,64.5C 517.231,46.152 529.731,34.8186 548.5,30.5 Z"/></g>
<g><path style="opacity:1" fill="#feae25" d="M 341.5,119.5 C 336.695,120.487 331.695,120.821 326.5,120.5C 326.5,120.167 326.5,119.833 326.5,119.5C 326.5,90.8333 326.5,62.1667 326.5,33.5C 331.5,33.5 336.5,33.5 341.5,33.5C 341.5,62.1667 341.5,90.8333 341.5,119.5 Z"/></g>
<g><path style="opacity:1" fill="#99999e" d="M 424.5,46.5 C 415.167,47.1667 405.833,47.8333 396.5,48.5C 396.5,72.1667 396.5,95.8333 396.5,119.5C 391.167,119.5 385.833,119.5 380.5,119.5C 380.5,95.5 380.5,71.5 380.5,47.5C 372.5,47.5 364.5,47.5 356.5,47.5C 355.513,42.6946 355.179,37.6946 355.5,32.5C 375.169,32.3334 394.836,32.5 414.5,33C 417.964,37.4405 421.298,41.9405 424.5,46.5 Z"/></g>
<g><path style="opacity:1" fill="#facd79" d="M 325.5,32.5 C 331.167,32.5 336.833,32.5 342.5,32.5C 342.831,61.6715 342.498,90.6715 341.5,119.5C 341.5,90.8333 341.5,62.1667 341.5,33.5C 336.5,33.5 331.5,33.5 326.5,33.5C 326.5,62.1667 326.5,90.8333 326.5,119.5C 325.502,90.6715 325.169,61.6715 325.5,32.5 Z"/></g>
<g><path style="opacity:1" fill="#98989e" d="M 494.5,34.5 C 491.77,39.4041 488.436,43.9041 484.5,48C 473.505,48.4998 462.505,48.6665 451.5,48.5C 450.509,54.979 450.176,61.6457 450.5,68.5C 461.5,68.5 472.5,68.5 483.5,68.5C 483.5,73.5 483.5,78.5 483.5,83.5C 472.5,83.5 461.5,83.5 450.5,83.5C 450.175,90.6866 450.509,97.6866 451.5,104.5C 464.833,104.5 478.167,104.5 491.5,104.5C 491.5,109.833 491.5,115.167 491.5,120.5C 472.659,120.83 453.993,120.497 435.5,119.5C 435.5,90.8333 435.5,62.1667 435.5,33.5C 455.34,33.1696 475.007,33.5029 494.5,34.5 Z"/></g>
<g><path style="opacity:1" fill="#98999e" d="M 618.5,119.5 C 613.833,119.5 609.167,119.5 604.5,119.5C 604.5,90.8333 604.5,62.1667 604.5,33.5C 609.167,33.5 613.833,33.5 618.5,33.5C 618.172,45.3453 618.505,57.012 619.5,68.5C 631.5,68.5 643.5,68.5 655.5,68.5C 655.5,56.8333 655.5,45.1667 655.5,33.5C 660.567,32.1757 665.734,32.1757 671,33.5C 671.667,62.1667 671.667,90.8333 671,119.5C 665.928,120.471 660.762,120.805 655.5,120.5C 655.5,108.5 655.5,96.5 655.5,84.5C 643.5,84.5 631.5,84.5 619.5,84.5C 619.828,96.3453 619.495,108.012 618.5,119.5 Z"/></g>
<g><path style="opacity:1" fill="#feae24" d="M 103.5,91.5 C 103.5,92.1667 103.5,92.8333 103.5,93.5C 103.427,95.0269 104.094,96.0269 105.5,96.5C 107.113,100.113 109.78,102.78 113.5,104.5C 116.708,106.531 120.041,106.865 123.5,105.5C 125.887,105.088 127.887,104.088 129.5,102.5C 131.167,101.167 132.833,99.8333 134.5,98.5C 135.906,98.0269 136.573,97.0269 136.5,95.5C 136.5,95.1667 136.5,94.8333 136.5,94.5C 138.488,74.5275 139.155,54.1941 138.5,33.5C 143.167,33.5 147.833,33.5 152.5,33.5C 152.5,53.8333 152.5,74.1667 152.5,94.5C 151.732,98.6989 150.399,102.699 148.5,106.5C 147.094,106.973 146.427,107.973 146.5,109.5C 144.5,110.833 142.833,112.5 141.5,114.5C 140.29,114.932 139.29,115.599 138.5,116.5C 136.326,116.75 134.659,117.75 133.5,119.5C 125.911,121.65 118.244,121.984 110.5,120.5C 109.833,120.5 109.5,120.167 109.5,119.5C 107.544,118.508 105.544,117.508 103.5,116.5C 101.938,116.267 100.605,115.6 99.5,114.5C 97.8333,112.167 95.8333,110.167 93.5,108.5C 93.0075,106.181 92.0075,104.181 90.5,102.5C 89.8333,100.167 89.1667,97.8333 88.5,95.5C 88.3334,75.1639 88.5,54.8306 89,34.5C 93.0659,33.5363 97.2325,33.203 101.5,33.5C 101.333,52.1696 101.5,70.8363 102,89.5C 102.278,90.4158 102.778,91.0825 103.5,91.5 Z"/></g>
<g><path style="opacity:1" fill="#fdae26" d="M 247.5,91.5 C 247.5,90.8333 247.5,90.1667 247.5,89.5C 248.833,88.1667 250.167,86.8333 251.5,85.5C 253.587,84.4154 254.92,82.7488 255.5,80.5C 257.122,77.5451 259.122,74.8785 261.5,72.5C 263.262,71.7377 264.262,70.4044 264.5,68.5C 266.587,67.4154 267.92,65.7488 268.5,63.5C 269.08,61.2512 270.413,59.5846 272.5,58.5C 273.794,57.7101 274.961,56.7101 276,55.5C 279.794,59.2053 280.294,58.5386 277.5,53.5C 278.729,52.7189 280.062,52.2189 281.5,52C 282.167,50 283.5,48.6667 285.5,48C 281.82,46.7753 282.153,45.942 286.5,45.5C 286.561,43.4078 287.561,41.9078 289.5,41C 288.663,39.9887 288.33,38.8221 288.5,37.5C 288.5,36.8333 288.833,36.5 289.5,36.5C 290.627,35.8783 291.627,35.045 292.5,34C 297.155,33.5008 301.821,33.3342 306.5,33.5C 306.5,61.8333 306.5,90.1667 306.5,118.5C 301.737,118.774 297.07,118.441 292.5,117.5C 292.833,98.4883 292.5,79.4883 291.5,60.5C 290.893,60.6236 290.56,60.9569 290.5,61.5C 288.782,63.2228 287.449,65.2228 286.5,67.5C 284.413,68.5846 283.08,70.2512 282.5,72.5C 281.026,73.4363 280.026,74.7697 279.5,76.5C 276.791,79.2085 274.458,82.2085 272.5,85.5C 270.738,86.2623 269.738,87.5956 269.5,89.5C 265.738,92.9289 262.738,96.9289 260.5,101.5C 258.413,102.585 257.08,104.251 256.5,106.5C 253.353,108.313 251.353,110.98 250.5,114.5C 249.5,114.833 248.833,115.5 248.5,116.5C 247.038,117.458 245.705,118.624 244.5,120C 239.845,120.499 235.179,120.666 230.5,120.5C 229.679,100.573 229.179,80.573 229,60.5C 227.198,61.7893 226.031,63.4559 225.5,65.5C 222.444,67.9485 220.111,70.9485 218.5,74.5C 216.738,75.2623 215.738,76.5956 215.5,78.5C 213.413,79.5846 212.08,81.2512 211.5,83.5C 210.094,83.9731 209.427,84.9731 209.5,86.5C 207.413,87.5846 206.08,89.2512 205.5,91.5C 203.413,92.5846 202.08,94.2512 201.5,96.5C 199.016,98.8003 197.016,101.467 195.5,104.5C 193.367,106.091 191.701,108.091 190.5,110.5C 189.094,110.973 188.427,111.973 188.5,113.5C 186.139,115.194 184.139,117.194 182.5,119.5C 176.074,120.12 170.074,119.453 164.5,117.5C 166.147,114.527 168.147,111.86 170.5,109.5C 171.906,109.027 172.573,108.027 172.5,106.5C 172.833,105.5 173.5,104.833 174.5,104.5C 175.906,104.027 176.573,103.027 176.5,101.5C 176.5,100.833 176.833,100.5 177.5,100.5C 178.82,99.0582 180.486,98.3915 182.5,98.5C 182.517,96.4352 182.85,94.4352 183.5,92.5C 187.151,90.5232 189.484,87.5232 190.5,83.5C 192.587,82.4154 193.92,80.7488 194.5,78.5C 196.195,77.9886 197.861,77.3219 199.5,76.5C 198.626,73.5269 199.96,72.1936 203.5,72.5C 203.448,70.0971 203.781,67.7638 204.5,65.5C 204.427,63.9731 205.094,62.9731 206.5,62.5C 208.262,61.7377 209.262,60.4044 209.5,58.5C 215.261,50.6433 221.261,42.9767 227.5,35.5C 232.915,33.6557 238.582,32.989 244.5,33.5C 244.5,53.1667 244.5,72.8333 244.5,92.5C 245.791,92.7373 246.791,92.404 247.5,91.5 Z"/></g>
<g><path style="opacity:1" fill="#f7ac33" d="M 306.5,33.5 C 306.833,33.5 307.167,33.5 307.5,33.5C 307.5,62.1667 307.5,90.8333 307.5,119.5C 302.056,120.108 297.056,119.442 292.5,117.5C 297.07,118.441 301.737,118.774 306.5,118.5C 306.5,90.1667 306.5,61.8333 306.5,33.5 Z"/></g>
<g><path style="opacity:1" fill="#fdf0ca" d="M 26.5,32.5 C 26.5,61.8333 26.5,91.1667 26.5,120.5C 25.1673,106.182 24.5006,91.5156 24.5,76.5C 24.5006,61.4844 25.1673,46.8178 26.5,32.5 Z"/></g>
<g><path style="opacity:1" fill="#f9b851" d="M 26.5,32.5 C 32.0262,32.1786 37.3595,32.5119 42.5,33.5C 42.5,56.8333 42.5,80.1667 42.5,103.5C 41.5025,80.3393 41.1691,57.006 41.5,33.5C 36.8333,33.5 32.1667,33.5 27.5,33.5C 27.5,61.8333 27.5,90.1667 27.5,118.5C 40.8333,118.5 54.1667,118.5 67.5,118.5C 67.3893,119.117 67.056,119.617 66.5,120C 53.1708,120.5 39.8375,120.667 26.5,120.5C 26.5,91.1667 26.5,61.8333 26.5,32.5 Z"/></g>
<g><path style="opacity:1" fill="#f7b347" d="M 87.5,32.5 C 92.8333,32.5 98.1667,32.5 103.5,32.5C 103.5,52.1667 103.5,71.8333 103.5,91.5C 102.778,91.0825 102.278,90.4158 102,89.5C 101.5,70.8363 101.333,52.1696 101.5,33.5C 97.2325,33.203 93.0659,33.5363 89,34.5C 88.5,54.8306 88.3334,75.1639 88.5,95.5C 88.1667,95.5 87.8333,95.5 87.5,95.5C 87.5,74.5 87.5,53.5 87.5,32.5 Z"/></g>
<g><path style="opacity:1" fill="#f2b258" d="M 138.5,33.5 C 143.305,32.5128 148.305,32.1795 153.5,32.5C 153.5,53.1667 153.5,73.8333 153.5,94.5C 153.167,94.5 152.833,94.5 152.5,94.5C 152.5,74.1667 152.5,53.8333 152.5,33.5C 147.833,33.5 143.167,33.5 138.5,33.5 Z"/></g>
<g><path style="opacity:1" fill="#fbba51" d="M 245.5,32.5 C 244.846,52.5284 245.512,72.1951 247.5,91.5C 246.791,92.404 245.791,92.7373 244.5,92.5C 244.5,72.8333 244.5,53.1667 244.5,33.5C 238.582,32.989 232.915,33.6557 227.5,35.5C 227.804,34.8501 228.137,34.1835 228.5,33.5C 234.128,32.5046 239.794,32.1712 245.5,32.5 Z"/></g>
<g><path style="opacity:1" fill="#fcf1cb" d="M 245.5,32.5 C 246.167,51.5 246.833,70.5 247.5,89.5C 247.5,90.1667 247.5,90.8333 247.5,91.5C 245.512,72.1951 244.846,52.5284 245.5,32.5 Z"/></g>
<g><path style="opacity:1" fill="#f4ce83" d="M 307.5,32.5 C 308.498,61.6619 308.831,90.9953 308.5,120.5C 302.833,120.5 297.167,120.5 291.5,120.5C 291.83,100.66 291.497,80.9929 290.5,61.5C 290.56,60.9569 290.893,60.6236 291.5,60.5C 292.5,79.4883 292.833,98.4883 292.5,117.5C 297.056,119.442 302.056,120.108 307.5,119.5C 307.5,90.8333 307.5,62.1667 307.5,33.5C 307.5,33.1667 307.5,32.8333 307.5,32.5 Z"/></g>
<g><path style="opacity:1" fill="#fdfdef" d="M 42.5,33.5 C 43.4975,56.3273 43.8308,79.3273 43.5,102.5C 55.0123,102.172 66.3456,102.505 77.5,103.5C 65.8333,103.5 54.1667,103.5 42.5,103.5C 42.5,80.1667 42.5,56.8333 42.5,33.5 Z"/></g>
<g><path style="opacity:1" fill="#fdf8d5" d="M 104.5,93.5 C 104.167,93.5 103.833,93.5 103.5,93.5C 103.5,92.8333 103.5,92.1667 103.5,91.5C 103.5,71.8333 103.5,52.1667 103.5,32.5C 98.1667,32.5 92.8333,32.5 87.5,32.5C 92.0097,31.727 96.6763,31.0603 101.5,30.5C 102.442,30.6082 103.275,30.9415 104,31.5C 104.5,52.164 104.667,72.8306 104.5,93.5 Z"/></g>
<g><path style="opacity:1" fill="#fdba50" d="M 138.5,33.5 C 139.155,54.1941 138.488,74.5275 136.5,94.5C 136.5,93.8333 136.5,93.1667 136.5,92.5C 137.167,72.8333 137.833,53.1667 138.5,33.5 Z"/></g>
<g><path style="opacity:1" fill="#a9a7ac" d="M 619.5,67.5 C 619.5,67.8333 619.5,68.1667 619.5,68.5C 618.505,57.012 618.172,45.3453 618.5,33.5C 613.833,33.5 609.167,33.5 604.5,33.5C 604.5,62.1667 604.5,90.8333 604.5,119.5C 609.167,119.5 613.833,119.5 618.5,119.5C 613.695,120.487 608.695,120.821 603.5,120.5C 603.5,91.1667 603.5,61.8333 603.5,32.5C 608.833,32.5 614.167,32.5 619.5,32.5C 619.5,44.1667 619.5,55.8333 619.5,67.5 Z"/></g>
<g><path style="opacity:1" fill="#fbb23b" d="M 288.5,37.5 C 288.33,38.8221 288.663,39.9887 289.5,41C 287.561,41.9078 286.561,43.4078 286.5,45.5C 282.153,45.942 281.82,46.7753 285.5,48C 283.5,48.6667 282.167,50 281.5,52C 280.062,52.2189 278.729,52.7189 277.5,53.5C 280.294,58.5386 279.794,59.2053 276,55.5C 274.961,56.7101 273.794,57.7101 272.5,58.5C 277.073,50.9261 282.406,43.9261 288.5,37.5 Z"/></g>
<g><path style="opacity:1" fill="#fefce7" d="M 325.5,32.5 C 325.169,61.6715 325.502,90.6715 326.5,119.5C 326.5,119.833 326.5,120.167 326.5,120.5C 325.167,106.182 324.501,91.5156 324.5,76.5C 324.5,61.6628 324.833,46.9962 325.5,32.5 Z"/></g>
<g><path style="opacity:1" fill="#bfbec2" d="M 424.5,46.5 C 425.043,46.56 425.376,46.8933 425.5,47.5C 415.856,48.4984 406.19,48.8318 396.5,48.5C 405.833,47.8333 415.167,47.1667 424.5,46.5 Z"/></g>
<g><path style="opacity:1" fill="#d8dbdc" d="M 356.5,47.5 C 364.5,47.5 372.5,47.5 380.5,47.5C 380.5,71.5 380.5,95.5 380.5,119.5C 379.502,96.0059 379.169,72.3392 379.5,48.5C 371.648,48.8254 363.982,48.492 356.5,47.5 Z"/></g>
<g><path style="opacity:1" fill="#f6c978" d="M 209.5,58.5 C 209.262,60.4044 208.262,61.7377 206.5,62.5C 206.738,60.5956 207.738,59.2623 209.5,58.5 Z"/></g>
<g><path style="opacity:1" fill="#fcebbd" d="M 225.5,65.5 C 223.889,69.0515 221.556,72.0515 218.5,74.5C 220.111,70.9485 222.444,67.9485 225.5,65.5 Z"/></g>
<g><path style="opacity:1" fill="#f8c673" d="M 268.5,63.5 C 267.92,65.7488 266.587,67.4154 264.5,68.5C 265.08,66.2512 266.413,64.5846 268.5,63.5 Z"/></g>
<g><path style="opacity:1" fill="#dfdee1" d="M 451.5,48.5 C 451.5,54.8333 451.5,61.1667 451.5,67.5C 462.346,67.1722 473.013,67.5056 483.5,68.5C 472.5,68.5 461.5,68.5 450.5,68.5C 450.176,61.6457 450.509,54.979 451.5,48.5 Z"/></g>
<g><path style="opacity:1" fill="#e6e7ea" d="M 655.5,33.5 C 655.5,45.1667 655.5,56.8333 655.5,68.5C 643.5,68.5 631.5,68.5 619.5,68.5C 619.5,68.1667 619.5,67.8333 619.5,67.5C 631.167,67.5 642.833,67.5 654.5,67.5C 654.172,55.9877 654.505,44.6544 655.5,33.5 Z"/></g>
<g><path style="opacity:1" fill="#fab544" d="M 204.5,65.5 C 203.781,67.7638 203.448,70.0971 203.5,72.5C 199.96,72.1936 198.626,73.5269 199.5,76.5C 197.861,77.3219 196.195,77.9886 194.5,78.5C 197.074,73.591 200.408,69.2577 204.5,65.5 Z"/></g>
<g><path style="opacity:1" fill="#f6c371" d="M 264.5,68.5 C 264.262,70.4044 263.262,71.7377 261.5,72.5C 261.738,70.5956 262.738,69.2623 264.5,68.5 Z"/></g>
<g><path style="opacity:1" fill="#fbe5b4" d="M 286.5,67.5 C 285.92,69.7488 284.587,71.4154 282.5,72.5C 283.08,70.2512 284.413,68.5846 286.5,67.5 Z"/></g>
<g><path style="opacity:1" fill="#f5be5f" d="M 194.5,78.5 C 193.92,80.7488 192.587,82.4154 190.5,83.5C 191.08,81.2512 192.413,79.5846 194.5,78.5 Z"/></g>
<g><path style="opacity:1" fill="#fbe5b1" d="M 215.5,78.5 C 214.92,80.7488 213.587,82.4154 211.5,83.5C 212.08,81.2512 213.413,79.5846 215.5,78.5 Z"/></g>
<g><path style="opacity:1" fill="#fcf4da" d="M 279.5,76.5 C 278.559,78.4664 277.559,80.4664 276.5,82.5C 276.833,83.1667 277.167,83.8333 277.5,84.5C 275.753,84.9734 274.086,85.3068 272.5,85.5C 274.458,82.2085 276.791,79.2085 279.5,76.5 Z"/></g>
<g><path style="opacity:1" fill="#f8c36b" d="M 255.5,80.5 C 254.92,82.7488 253.587,84.4154 251.5,85.5C 252.08,83.2512 253.413,81.5846 255.5,80.5 Z"/></g>
<g><path style="opacity:1" fill="#b5b5b8" d="M 483.5,83.5 C 473.013,84.4944 462.346,84.8278 451.5,84.5C 451.5,91.1667 451.5,97.8333 451.5,104.5C 450.509,97.6866 450.175,90.6866 450.5,83.5C 461.5,83.5 472.5,83.5 483.5,83.5 Z"/></g>
<g><path style="opacity:1" fill="#fcefc9" d="M 209.5,86.5 C 208.92,88.7488 207.587,90.4154 205.5,91.5C 206.08,89.2512 207.413,87.5846 209.5,86.5 Z"/></g>
<g><path style="opacity:1" fill="#fbe7b4" d="M 272.5,85.5 C 272.262,87.4044 271.262,88.7377 269.5,89.5C 269.738,87.5956 270.738,86.2623 272.5,85.5 Z"/></g>
<g><path style="opacity:1" fill="#f9bb57" d="M 190.5,83.5 C 189.484,87.5232 187.151,90.5232 183.5,92.5C 185.458,89.2085 187.791,86.2085 190.5,83.5 Z"/></g>
<g><path style="opacity:1" fill="#fbe7b7" d="M 205.5,91.5 C 204.92,93.7488 203.587,95.4154 201.5,96.5C 202.08,94.2512 203.413,92.5846 205.5,91.5 Z"/></g>
<g><path style="opacity:1" fill="#f7ce81" d="M 103.5,93.5 C 103.833,93.5 104.167,93.5 104.5,93.5C 105.11,94.391 105.443,95.391 105.5,96.5C 104.094,96.0269 103.427,95.0269 103.5,93.5 Z"/></g>
<g><path style="opacity:1" fill="#fcf1cf" d="M 269.5,89.5 C 268.829,90.8471 268.829,92.0138 269.5,93C 266.165,95.5294 263.165,98.3627 260.5,101.5C 262.738,96.9289 265.738,92.9289 269.5,89.5 Z"/></g>
<g><path style="opacity:1" fill="#f8c671" d="M 136.5,95.5 C 136.573,97.0269 135.906,98.0269 134.5,98.5C 134.427,96.9731 135.094,95.9731 136.5,95.5 Z"/></g>
<g><path style="opacity:1" fill="#f9b84e" d="M 183.5,92.5 C 182.85,94.4352 182.517,96.4352 182.5,98.5C 180.486,98.3915 178.82,99.0582 177.5,100.5C 179.016,97.4669 181.016,94.8003 183.5,92.5 Z"/></g>
<g><path style="opacity:1" fill="#fce9b9" d="M 87.5,95.5 C 87.8333,95.5 88.1667,95.5 88.5,95.5C 89.1667,97.8333 89.8333,100.167 90.5,102.5C 88.1663,100.824 87.1663,98.491 87.5,95.5 Z"/></g>
<g><path style="opacity:1" fill="#f7c56e" d="M 176.5,101.5 C 176.573,103.027 175.906,104.027 174.5,104.5C 174.427,102.973 175.094,101.973 176.5,101.5 Z"/></g>
<g><path style="opacity:1" fill="#faf1d7" d="M 201.5,96.5 C 201.297,98.0443 200.63,99.3777 199.5,100.5C 200.96,103.951 200.627,104.617 198.5,102.5C 197.482,103.193 196.482,103.859 195.5,104.5C 197.016,101.467 199.016,98.8003 201.5,96.5 Z"/></g>
<g><path style="opacity:1" fill="#f6dda1" d="M 42.5,103.5 C 54.1667,103.5 65.8333,103.5 77.5,103.5C 78.8333,104.5 78.8333,105.5 77.5,106.5C 66.0358,104.841 54.3691,103.841 42.5,103.5 Z"/></g>
<g><path style="opacity:1" fill="#fcf6de" d="M 129.5,102.5 C 127.887,104.088 125.887,105.088 123.5,105.5C 121.265,105.795 119.265,105.461 117.5,104.5C 121.5,103.833 125.5,103.167 129.5,102.5 Z"/></g>
<g><path style="opacity:1" fill="#fcedc8" d="M 152.5,94.5 C 152.833,94.5 153.167,94.5 153.5,94.5C 153.322,97.2165 152.822,99.8832 152,102.5C 151.502,104.544 150.335,105.878 148.5,106.5C 150.399,102.699 151.732,98.6989 152.5,94.5 Z"/></g>
<g><path style="opacity:1" fill="#fbf3c4" d="M 230.5,120.5 C 230.167,120.5 229.833,120.5 229.5,120.5C 228.668,102.671 228.168,84.6713 228,66.5C 227.658,64.3808 226.825,64.0474 225.5,65.5C 226.031,63.4559 227.198,61.7893 229,60.5C 229.179,80.573 229.679,100.573 230.5,120.5 Z"/></g>
<g><path style="opacity:1" fill="#f8c471" d="M 113.5,104.5 C 114.833,104.5 116.167,104.5 117.5,104.5C 119.265,105.461 121.265,105.795 123.5,105.5C 120.041,106.865 116.708,106.531 113.5,104.5 Z"/></g>
<g><path style="opacity:1" fill="#f7ca7c" d="M 172.5,106.5 C 172.573,108.027 171.906,109.027 170.5,109.5C 170.427,107.973 171.094,106.973 172.5,106.5 Z"/></g>
<g><path style="opacity:1" fill="#fae6b3" d="M 148.5,106.5 C 148.573,108.027 147.906,109.027 146.5,109.5C 146.427,107.973 147.094,106.973 148.5,106.5 Z"/></g>
<g><path style="opacity:1" fill="#fdae23" d="M 42.5,103.5 C 54.3691,103.841 66.0358,104.841 77.5,106.5C 76.8333,107.5 76.1667,108.5 75.5,109.5C 74.0937,109.973 73.427,110.973 73.5,112.5C 71.8606,114.806 69.8606,116.806 67.5,118.5C 54.1667,118.5 40.8333,118.5 27.5,118.5C 27.5,90.1667 27.5,61.8333 27.5,33.5C 32.1667,33.5 36.8333,33.5 41.5,33.5C 41.1691,57.006 41.5025,80.3393 42.5,103.5 Z"/></g>
<g><path style="opacity:1" fill="#fdedc6" d="M 93.5,108.5 C 95.8333,110.167 97.8333,112.167 99.5,114.5C 96.5,113.5 94.5,111.5 93.5,108.5 Z"/></g>
<g><path style="opacity:1" fill="#fbe5af" d="M 256.5,106.5 C 254.878,109.455 252.878,112.122 250.5,114.5C 251.353,110.98 253.353,108.313 256.5,106.5 Z"/></g>
<g><path style="opacity:1" fill="#f8e0a0" d="M 75.5,109.5 C 75.573,111.027 74.9063,112.027 73.5,112.5C 73.427,110.973 74.0937,109.973 75.5,109.5 Z"/></g>
<g><path style="opacity:1" fill="#fbe5ab" d="M 190.5,110.5 C 190.573,112.027 189.906,113.027 188.5,113.5C 188.427,111.973 189.094,110.973 190.5,110.5 Z"/></g>
<g><path style="opacity:1" fill="#fcf0c9" d="M 146.5,109.5 C 145.833,112.167 144.167,113.833 141.5,114.5C 142.833,112.5 144.5,110.833 146.5,109.5 Z"/></g>
<g><path style="opacity:1" fill="#f8c876" d="M 103.5,116.5 C 105.544,117.508 107.544,118.508 109.5,119.5C 106.687,119.975 104.687,118.975 103.5,116.5 Z"/></g>
<g><path style="opacity:1" fill="#fae9ba" d="M 138.5,116.5 C 137.514,118.408 135.848,119.408 133.5,119.5C 134.659,117.75 136.326,116.75 138.5,116.5 Z"/></g>
<g><path style="opacity:1" fill="#fbcb74" d="M 164.5,117.5 C 170.074,119.453 176.074,120.12 182.5,119.5C 176.355,120.49 170.022,120.823 163.5,120.5C 163.263,119.209 163.596,118.209 164.5,117.5 Z"/></g>
<g><path style="opacity:1" fill="#fef8df" d="M 248.5,116.5 C 248.141,118.371 247.141,119.871 245.5,121C 239.984,121.817 234.65,121.651 229.5,120.5C 229.833,120.5 230.167,120.5 230.5,120.5C 235.179,120.666 239.845,120.499 244.5,120C 245.705,118.624 247.038,117.458 248.5,116.5 Z"/></g>
<g><path style="opacity:1" fill="#fbf1cd" d="M 133.5,119.5 C 132.319,121.067 130.653,121.901 128.5,122C 122.833,122.667 117.167,122.667 111.5,122C 110.944,121.617 110.611,121.117 110.5,120.5C 118.244,121.984 125.911,121.65 133.5,119.5 Z"/></g>
</svg>
